<?xml version="1.0" encoding="UTF-8"?>
<svg xmlns="http://www.w3.org/2000/svg" xmlns:xlink="http://www.w3.org/1999/xlink" width="300px" height="378px" viewBox="0 0 300 378" version="1.1">
<g id="surface1">
<path style=" stroke:none;fill-rule:nonzero;fill:rgb(0%,0%,0%);fill-opacity:1;" d="M 139.667969 0.476562 C 138.375 0.710938 135.609375 2.0625 133.492188 3.53125 C 126.726562 8.117188 124.960938 13.933594 126.019531 27.507812 C 126.492188 33.5625 126.726562 34.5625 128.195312 36.382812 C 132.433594 41.90625 135.082031 48.488281 134.375 52.074219 C 133.609375 56.1875 123.726562 65.0625 118.785156 66.0625 C 117.667969 66.296875 115.84375 67.296875 114.785156 68.355469 C 113.078125 69.941406 112.429688 70.175781 109.664062 70.175781 C 106.78125 70.175781 106.3125 70.351562 104.074219 72.527344 C 102.78125 73.820312 101.015625 76.289062 100.191406 77.933594 C 99.429688 79.636719 98.546875 81.046875 98.308594 81.046875 C 97.605469 81.046875 92.074219 88.21875 91.074219 90.449219 C 88.957031 95.152344 84.367188 100.617188 77.660156 106.378906 C 76.484375 107.375 75.835938 108.492188 75.835938 109.492188 C 75.835938 111.253906 72.71875 114.898438 68.425781 118.070312 C 66.953125 119.1875 64.070312 121.597656 62.070312 123.421875 C 60.128906 125.183594 57.1875 127.769531 55.65625 129.0625 C 54.070312 130.414062 50.421875 134.234375 47.480469 137.582031 C 37.597656 148.808594 28.59375 158.035156 27.359375 158.386719 C 26.710938 158.5625 25.183594 159.914062 24.066406 161.382812 C 22.945312 162.855469 21.652344 164.382812 21.242188 164.851562 C 20.359375 165.792969 16.652344 165.96875 16.121094 165.085938 C 15.476562 164.089844 14.652344 165.085938 14.652344 166.851562 C 14.652344 167.964844 14.0625 168.964844 12.828125 170.023438 C 11.828125 170.847656 10.828125 171.550781 10.535156 171.550781 C 10.296875 171.550781 8.003906 174.195312 5.53125 177.488281 C 2.53125 181.484375 1.179688 183.714844 1.414062 184.421875 C 1.589844 185.007812 1.296875 186.597656 0.828125 188.007812 C -0.292969 191.179688 -0.292969 191.53125 1.003906 191.53125 C 1.589844 191.53125 2.707031 190.296875 3.769531 188.535156 C 5.589844 185.421875 8.296875 182.777344 8.652344 183.777344 C 8.769531 184.128906 7.59375 186.65625 6.0625 189.476562 C 4.179688 193.003906 3.53125 194.765625 3.945312 195.175781 C 4.886719 196.117188 5.652344 195.351562 9.0625 190.0625 C 13.886719 182.542969 14.828125 182.601562 13.296875 190.179688 C 12.710938 192.945312 12.417969 195.351562 12.59375 195.527344 C 13.476562 196.46875 15.003906 194.234375 16.359375 190.121094 C 17.652344 185.949219 18.0625 185.363281 21.945312 181.777344 C 26.949219 177.195312 26.476562 177.722656 29.125 174.609375 C 30.300781 173.257812 31.890625 171.964844 32.652344 171.785156 C 33.417969 171.609375 34.066406 171.199219 34.066406 170.90625 C 34.066406 170.609375 34.773438 170.023438 35.714844 169.671875 C 37.597656 168.789062 43.242188 164.792969 43.773438 163.851562 C 44.007812 163.5 46.480469 161.738281 49.304688 159.914062 C 52.070312 158.152344 56.597656 154.800781 59.363281 152.570312 C 62.128906 150.277344 66.484375 147.046875 69.070312 145.398438 C 73.601562 142.460938 77.011719 139.40625 83.191406 132.707031 C 84.839844 130.941406 87.722656 128.003906 89.664062 126.183594 C 91.605469 124.359375 95.25 120.777344 97.78125 118.191406 C 100.3125 115.605469 103.074219 113.136719 103.898438 112.722656 C 105.3125 111.960938 105.488281 112.019531 106.371094 113.3125 C 108.136719 115.898438 112.429688 125.945312 114.722656 132.765625 C 118.488281 144.046875 119.667969 154.039062 118.136719 161.738281 C 117.488281 164.910156 117.546875 165.203125 118.902344 167.320312 C 121.195312 170.730469 121.3125 174.136719 119.253906 177.78125 C 118.078125 179.898438 117.429688 182.1875 117.019531 185.714844 C 116.605469 188.945312 115.84375 191.652344 114.902344 193.589844 C 112.605469 197.9375 112.253906 199.703125 112.960938 202.109375 C 113.546875 204.109375 113.371094 204.695312 109.429688 212.511719 C 101.3125 228.792969 97.015625 239.898438 96.664062 245.894531 C 96.367188 250.007812 94.898438 257 93.78125 259.117188 C 93.191406 260.234375 91.484375 263.171875 89.898438 265.582031 C 88.367188 267.992188 86.78125 270.753906 86.308594 271.753906 C 85.898438 272.691406 85.425781 273.632812 85.25 273.808594 C 85.074219 273.984375 84.015625 275.570312 82.898438 277.335938 C 81.777344 279.097656 78.953125 282.625 76.601562 285.09375 C 73.953125 287.914062 71.601562 291.144531 70.304688 293.671875 C 69.246094 295.964844 67.246094 299.609375 65.953125 301.78125 C 62.660156 307.484375 60.597656 311.773438 59.363281 315.183594 C 58.480469 317.710938 53.246094 331.460938 48.714844 343.15625 C 48.007812 344.917969 46.066406 348.503906 44.363281 351.089844 C 42.714844 353.675781 40.65625 356.964844 39.773438 358.4375 C 38.949219 359.90625 36.65625 362.375 34.714844 364.019531 C 31.125 367.015625 30.59375 368.132812 31.832031 370.367188 C 33.535156 373.65625 36.773438 374.949219 43.949219 375.359375 L 49.421875 375.65625 L 51.480469 373.65625 C 53.128906 372.070312 53.480469 371.304688 53.480469 369.191406 C 53.480469 367.308594 53.890625 366.253906 55.1875 364.78125 C 57.1875 362.492188 58.480469 359.550781 59.070312 356.027344 C 59.539062 352.910156 64.363281 342.804688 67.070312 338.984375 C 71.308594 333.164062 78.542969 324.46875 82.132812 320.941406 C 86.71875 316.417969 88.601562 313.476562 93.722656 302.605469 C 95.957031 297.902344 98.78125 292.792969 100.015625 291.203125 C 101.3125 289.617188 102.3125 288.089844 102.3125 287.738281 C 102.3125 287.445312 104.253906 285.152344 106.605469 282.683594 C 108.898438 280.214844 111.605469 276.746094 112.546875 274.984375 C 113.488281 273.222656 116.488281 268.519531 119.195312 264.640625 L 124.078125 257.472656 L 128.019531 257.117188 C 134.199219 256.472656 135.316406 256.472656 139.140625 256.941406 L 142.789062 257.414062 L 145.90625 251.652344 C 150.316406 243.425781 156.199219 233.609375 157.199219 232.789062 C 157.90625 232.199219 159.023438 232.554688 162.964844 234.433594 C 165.671875 235.726562 168.910156 236.960938 170.144531 237.195312 C 171.320312 237.371094 172.320312 237.726562 172.320312 237.902344 C 172.320312 238.136719 173.203125 239.839844 174.320312 241.664062 C 175.4375 243.484375 176.792969 246.894531 177.378906 249.242188 C 177.96875 251.59375 178.675781 253.828125 178.96875 254.238281 C 179.261719 254.652344 180.96875 255.003906 182.792969 255.121094 L 186.085938 255.296875 L 191.265625 262.347656 C 194.148438 266.226562 197.914062 271.753906 199.738281 274.574219 C 202.738281 279.449219 202.972656 279.980469 202.558594 282.332031 C 202.324219 284.152344 202.5 285.445312 203.148438 286.738281 C 203.621094 287.796875 205.03125 292.203125 206.148438 296.609375 C 209.265625 308.304688 210.679688 311.539062 215.5625 317.589844 C 227.035156 331.8125 231.800781 338.75 235.859375 346.976562 C 241.390625 358.257812 242.332031 361.433594 243.035156 370.191406 C 243.332031 374.246094 243.742188 377.710938 243.976562 377.945312 C 244.214844 378.183594 251.273438 377.710938 259.6875 376.890625 C 268.097656 376.066406 280.042969 375.300781 286.21875 375.242188 C 296.808594 375.066406 299.984375 374.597656 299.984375 373.1875 C 299.984375 372.421875 295.574219 370.484375 291.160156 369.25 C 283.925781 367.25 273.863281 363.136719 272.628906 361.667969 C 271.980469 360.902344 270.570312 360.140625 269.511719 359.90625 C 268.214844 359.609375 267.628906 359.199219 267.746094 358.613281 C 267.863281 358.023438 267.214844 357.4375 265.980469 357.027344 C 264.746094 356.613281 262.449219 354.558594 259.6875 351.382812 L 255.273438 346.445312 L 251.800781 335.515625 C 249.859375 329.523438 248.097656 323.820312 247.859375 322.882812 C 247.683594 321.882812 247.15625 320.53125 246.683594 319.882812 C 246.273438 319.179688 244.507812 314.710938 242.742188 309.894531 C 238.625 298.667969 235.09375 290.617188 233.210938 288.148438 C 232.386719 287.089844 231.742188 285.738281 231.742188 285.152344 C 231.742188 284.5625 231.328125 283.507812 230.859375 282.800781 C 229.800781 281.332031 228.5625 277.511719 227.679688 273.28125 C 227.328125 271.515625 226.503906 269.167969 225.859375 267.992188 C 225.269531 266.816406 224.621094 264.933594 224.445312 263.820312 C 224.269531 262.703125 223.152344 260.175781 221.914062 258.234375 C 219.914062 254.945312 219.796875 254.414062 219.738281 249.597656 C 219.679688 246.714844 219.855469 244.425781 220.152344 244.425781 C 221.152344 244.425781 220.328125 240.78125 216.503906 228.382812 C 214.269531 221.210938 211.503906 213.335938 210.265625 210.925781 C 209.03125 208.515625 207.503906 204.933594 206.914062 202.992188 C 206.265625 201.054688 205.207031 198.761719 204.621094 197.9375 C 204.03125 197.058594 203.5 196 203.5 195.527344 C 203.5 193.472656 202.089844 190.121094 200.441406 188.242188 L 198.558594 186.125 L 199.675781 184.128906 C 200.558594 182.421875 200.675781 181.367188 200.382812 176.78125 C 200.148438 173.84375 199.738281 171.023438 199.441406 170.492188 C 199.148438 169.964844 199.148438 169.082031 199.5 168.261719 C 199.972656 167.203125 199.855469 166.496094 198.914062 164.96875 C 196.148438 160.445312 188.910156 142.109375 186.617188 133.941406 C 185.265625 128.945312 184.851562 124.535156 185.734375 124.535156 C 186.96875 124.535156 193.148438 132.46875 197.207031 139.347656 C 199.265625 142.8125 222.035156 164.96875 231.328125 172.550781 C 233.035156 173.960938 235.625 175.722656 237.09375 176.488281 C 238.566406 177.253906 240.09375 178.308594 240.449219 178.78125 C 240.859375 179.25 241.683594 179.542969 242.210938 179.367188 C 242.976562 179.191406 244.035156 180.25 246.035156 183.246094 C 247.625 185.480469 249.683594 188.007812 250.742188 188.769531 C 251.800781 189.59375 254.863281 193.003906 257.625 196.410156 C 260.390625 199.878906 262.921875 202.640625 263.332031 202.699219 C 264.746094 202.699219 264.746094 201.40625 263.214844 198.878906 C 261.15625 195.351562 262.214844 195.46875 267.511719 199.464844 C 269.863281 201.230469 272.335938 202.699219 272.980469 202.699219 C 274.980469 202.699219 274.21875 200.699219 271.039062 197.878906 C 268.394531 195.527344 268.097656 195.058594 268.980469 194.707031 C 269.746094 194.414062 271.097656 195.058594 273.511719 196.761719 C 277.511719 199.585938 278.804688 199.820312 278.804688 197.703125 C 278.804688 196.585938 277.394531 195.117188 272.21875 190.886719 C 268.570312 187.890625 265.570312 185.246094 265.570312 184.890625 C 265.570312 184.597656 265.980469 184.070312 266.511719 183.714844 C 267.273438 183.246094 268.980469 183.714844 273.921875 185.832031 C 277.453125 187.359375 280.6875 188.59375 281.101562 188.59375 C 281.511719 188.59375 281.746094 188.066406 281.628906 187.300781 C 281.453125 185.832031 276.101562 182.011719 270.570312 179.425781 C 266.332031 177.429688 264.6875 175.839844 264.6875 173.84375 C 264.6875 172.609375 265.097656 171.964844 266.453125 171.257812 C 267.394531 170.789062 268.453125 170.375 268.804688 170.375 C 270.570312 170.375 275.746094 167.320312 276.394531 165.910156 C 277.277344 163.910156 276.863281 163.558594 274.511719 164.324219 C 273.511719 164.734375 270.921875 165.320312 268.804688 165.675781 C 266.6875 166.027344 263.273438 166.734375 261.15625 167.203125 C 254.214844 168.730469 252.921875 168.496094 248.976562 164.792969 C 247.097656 163.03125 245.332031 161.5625 245.035156 161.5625 C 243.859375 161.5625 236.152344 152.863281 229.386719 143.988281 C 223.09375 135.703125 220.972656 133.117188 217.152344 129.53125 C 214.5625 127.0625 212.328125 124.183594 212.328125 123.242188 C 212.328125 122.65625 211.796875 121.714844 211.148438 121.1875 C 210.503906 120.597656 209.972656 119.484375 209.972656 118.71875 C 209.972656 117.894531 209.382812 116.660156 208.679688 115.898438 C 207.5625 114.722656 207.503906 114.429688 208.207031 113.957031 C 208.914062 113.488281 208.796875 113.136719 207.503906 112.078125 C 205.679688 110.550781 203.324219 105.085938 201.679688 98.855469 C 199.441406 89.980469 196.5 83.105469 193.558594 79.753906 C 192.675781 78.695312 191.734375 77.226562 191.5 76.464844 C 190.5 73.40625 180.792969 68.355469 174.675781 67.765625 C 172.554688 67.53125 170.4375 67.0625 169.96875 66.648438 C 169.496094 66.238281 167.613281 65.238281 165.730469 64.417969 C 163.90625 63.59375 162.144531 62.417969 161.789062 61.773438 C 161.4375 61.066406 161.144531 57.363281 161.144531 53.25 C 161.144531 46.609375 161.261719 45.84375 162.378906 44.847656 C 164.847656 42.613281 165.496094 40.496094 165.496094 34.621094 C 165.496094 30.683594 165.085938 27.6875 164.203125 24.453125 C 163.496094 21.984375 162.90625 19.28125 162.90625 18.460938 C 162.90625 15.992188 160.613281 10.761719 158.613281 8.703125 C 157.554688 7.585938 156.199219 6 155.671875 5.117188 C 155.082031 4.179688 153.082031 2.710938 151.140625 1.710938 C 147.550781 -0.113281 144.90625 -0.40625 139.667969 0.476562 Z M 133.257812 92.332031 L 134.375 94.859375 L 134.550781 92.332031 C 134.667969 90.6875 135.019531 89.863281 135.609375 89.863281 C 136.375 89.863281 136.492188 90.507812 136.609375 96.621094 C 136.667969 101.324219 135.375 101.734375 133.609375 97.621094 L 132.375 94.859375 L 132.316406 97.621094 C 132.316406 99.734375 132.078125 100.441406 131.433594 100.441406 C 130.726562 100.441406 130.550781 99.5 130.550781 95.5625 C 130.550781 89.039062 131.375 88.042969 133.257812 92.332031 Z M 149.375 90.570312 C 149.375 90.980469 149.140625 92.273438 148.847656 93.390625 C 147.550781 98.445312 147.550781 98.5625 148.789062 98.796875 C 150.613281 99.089844 150.496094 100.148438 148.671875 100.324219 C 146.730469 100.558594 146.199219 99.148438 146.964844 95.621094 C 147.257812 94.269531 147.671875 92.390625 147.90625 91.449219 C 148.199219 89.863281 149.375 89.214844 149.375 90.570312 Z M 143.789062 91.15625 C 143.90625 91.566406 144.140625 93.859375 144.375 96.152344 C 144.667969 99.796875 144.609375 100.441406 143.847656 100.441406 C 143.316406 100.441406 142.90625 99.914062 142.90625 99.265625 C 142.90625 98.324219 142.492188 98.089844 141.140625 98.089844 C 139.964844 98.089844 139.375 98.382812 139.375 98.972656 C 139.375 99.441406 139.140625 99.855469 138.785156 99.855469 C 137.433594 99.855469 139.082031 93.566406 140.964844 91.507812 C 142.082031 90.273438 143.433594 90.097656 143.789062 91.15625 Z M 127.84375 92.332031 C 129.078125 94.09375 129.078125 99.441406 127.84375 100.675781 C 126.609375 101.910156 124.84375 101.851562 124.195312 100.558594 C 123.902344 100.03125 123.609375 98.207031 123.550781 96.503906 C 123.429688 94.035156 123.667969 93.273438 124.726562 92.273438 C 126.433594 90.746094 126.726562 90.746094 127.84375 92.332031 Z M 157.847656 91.390625 C 159.140625 91.921875 159.023438 95.976562 157.613281 99.089844 C 156.671875 101.265625 156.257812 101.617188 154.730469 101.617188 C 151.433594 101.617188 151.140625 101.265625 152.023438 98.503906 C 152.496094 97.152344 153.140625 94.917969 153.496094 93.507812 C 154.023438 91.449219 154.378906 91.039062 155.554688 91.039062 C 156.320312 91.039062 157.320312 91.214844 157.847656 91.390625 Z M 165.847656 94.269531 C 167.4375 96.152344 163.964844 103.378906 161.496094 103.378906 C 159.203125 103.378906 158.496094 101.96875 159.378906 99.265625 C 161.144531 93.917969 163.847656 91.859375 165.847656 94.269531 Z M 121.726562 95.445312 C 121.726562 96.269531 122.019531 98.089844 122.429688 99.558594 C 123.078125 101.851562 123.019531 102.320312 122.3125 102.792969 C 121.609375 103.203125 121.3125 102.910156 120.902344 101.265625 C 120.253906 98.679688 119.078125 98.972656 119.078125 101.792969 C 119.078125 105.378906 117.605469 105.027344 117.488281 101.441406 C 117.371094 96.796875 117.488281 96.09375 118.84375 94.976562 C 120.609375 93.566406 121.726562 93.742188 121.726562 95.445312 Z M 148.082031 112.546875 L 150.613281 116.957031 L 149.964844 120.597656 C 149.554688 122.597656 148.90625 125.828125 148.375 127.769531 C 146.90625 133.761719 145.847656 140.523438 145.847656 144.222656 C 145.847656 146.164062 145.140625 150.6875 144.257812 154.273438 L 142.726562 160.796875 L 138.550781 161.148438 C 136.316406 161.382812 134.316406 161.382812 134.140625 161.207031 C 133.609375 160.679688 135.257812 152.277344 136.726562 147.691406 C 137.84375 144.402344 138.199219 142.34375 137.964844 140.640625 C 137.492188 137.054688 138.550781 131.53125 140.847656 125.769531 C 141.964844 122.949219 143.082031 119.777344 143.257812 118.777344 L 143.667969 116.898438 L 125.84375 116.898438 L 125.84375 108.082031 L 135.726562 108.082031 L 145.550781 108.140625 Z M 148.082031 112.546875 "/>
<path style=" stroke:none;fill-rule:nonzero;fill:rgb(0%,0%,0%);fill-opacity:1;" d="M 141.199219 94.445312 C 140.375 95.976562 140.609375 96.5625 141.847656 96.210938 C 142.433594 96.09375 142.550781 95.5625 142.316406 94.566406 L 141.964844 93.09375 Z M 125.667969 93.214844 C 125.433594 93.390625 125.253906 95.035156 125.253906 96.738281 C 125.253906 100.851562 126.667969 100.734375 126.902344 96.621094 C 127.078125 93.917969 126.492188 92.332031 125.667969 93.214844 Z M 154.378906 95.859375 C 153.257812 99.675781 153.257812 99.972656 154.496094 99.734375 C 155.4375 99.558594 157.789062 93.800781 157.140625 93.152344 C 156.199219 92.15625 155.199219 93.09375 154.378906 95.859375 Z M 163.023438 95.859375 C 162.144531 96.972656 160.554688 100.324219 160.554688 101.027344 C 160.554688 101.324219 160.964844 101.617188 161.4375 101.617188 C 162.320312 101.617188 164.671875 97.621094 164.671875 96.035156 C 164.671875 94.976562 163.847656 94.859375 163.023438 95.859375 Z M 119.078125 96.386719 C 118.84375 96.738281 118.785156 97.152344 118.960938 97.328125 C 119.371094 97.738281 120.550781 96.972656 120.550781 96.269531 C 120.550781 95.5625 119.546875 95.5625 119.078125 96.386719 Z M 119.078125 96.386719 "/>
</g>
</svg>
